<svg width="57" height="13" viewBox="0 0 57 13" fill="none" xmlns="http://www.w3.org/2000/svg">
<path d="M5.37495 0.339999C5.48695 0.339999 5.58495 0.372666 5.66895 0.438C5.75295 0.493999 5.80895 0.573333 5.83695 0.676L8.94495 10H7.67095L5.16495 2.076C5.12762 1.94533 5.08562 1.81467 5.03895 1.684C5.00162 1.544 4.96429 1.41333 4.92695 1.292H4.53495C4.49762 1.41333 4.46029 1.544 4.42295 1.684C4.38562 1.81467 4.34362 1.94533 4.29695 2.076L1.79095 10H0.516953L3.62495 0.676C3.65295 0.573333 3.70895 0.493999 3.79295 0.438C3.87695 0.372666 3.97495 0.339999 4.08695 0.339999H5.37495ZM7.16695 5.912V6.976H2.26695V5.912H7.16695ZM12.4459 3.014C12.7446 3.014 13.0619 3.02333 13.3979 3.042C13.7339 3.06067 14.0653 3.084 14.3919 3.112C14.7279 3.14 15.0359 3.17733 15.3159 3.224L15.2179 4.092C14.7886 4.07333 14.3546 4.05933 13.9159 4.05C13.4866 4.03133 13.0573 4.022 12.6279 4.022C12.2079 4.01267 11.8766 4.022 11.6339 4.05C11.3913 4.078 11.2139 4.15267 11.1019 4.274C10.9993 4.39533 10.9479 4.60067 10.9479 4.89C10.9479 5.24467 11.0319 5.478 11.1999 5.59C11.3679 5.702 11.6153 5.79533 11.9419 5.87L13.9299 6.318C14.4713 6.44867 14.8679 6.64933 15.1199 6.92C15.3813 7.19067 15.5119 7.61533 15.5119 8.194C15.5119 8.754 15.4046 9.174 15.1899 9.454C14.9846 9.734 14.6673 9.92067 14.2379 10.014C13.8086 10.1073 13.2626 10.154 12.5999 10.154C12.3573 10.154 11.9933 10.1447 11.5079 10.126C11.0319 10.1073 10.5046 10.0513 9.92594 9.958L10.0099 9.09C10.2339 9.09933 10.4719 9.11333 10.7239 9.132C10.9759 9.14133 11.2373 9.146 11.5079 9.146C11.7879 9.146 12.0726 9.146 12.3619 9.146C12.8753 9.146 13.2766 9.12267 13.5659 9.076C13.8553 9.02933 14.0606 8.94067 14.1819 8.81C14.3033 8.67 14.3639 8.46467 14.3639 8.194C14.3639 7.858 14.2659 7.634 14.0699 7.522C13.8739 7.41 13.6126 7.31667 13.2859 7.242L11.3259 6.794C10.9526 6.70067 10.6539 6.57933 10.4299 6.43C10.2059 6.27133 10.0426 6.07067 9.93994 5.828C9.83727 5.576 9.78594 5.26333 9.78594 4.89C9.78594 4.358 9.87927 3.95667 10.0659 3.686C10.2526 3.41533 10.5419 3.23333 10.9339 3.14C11.3259 3.04667 11.8299 3.00467 12.4459 3.014ZM19.5553 3.014C19.854 3.014 20.1713 3.02333 20.5073 3.042C20.8433 3.06067 21.1746 3.084 21.5013 3.112C21.8373 3.14 22.1453 3.17733 22.4253 3.224L22.3273 4.092C21.898 4.07333 21.464 4.05933 21.0253 4.05C20.596 4.03133 20.1666 4.022 19.7373 4.022C19.3173 4.01267 18.986 4.022 18.7433 4.05C18.5006 4.078 18.3233 4.15267 18.2113 4.274C18.1086 4.39533 18.0573 4.60067 18.0573 4.89C18.0573 5.24467 18.1413 5.478 18.3093 5.59C18.4773 5.702 18.7246 5.79533 19.0513 5.87L21.0393 6.318C21.5806 6.44867 21.9773 6.64933 22.2293 6.92C22.4906 7.19067 22.6213 7.61533 22.6213 8.194C22.6213 8.754 22.514 9.174 22.2993 9.454C22.094 9.734 21.7766 9.92067 21.3473 10.014C20.918 10.1073 20.372 10.154 19.7093 10.154C19.4666 10.154 19.1026 10.1447 18.6173 10.126C18.1413 10.1073 17.614 10.0513 17.0353 9.958L17.1193 9.09C17.3433 9.09933 17.5813 9.11333 17.8333 9.132C18.0853 9.14133 18.3466 9.146 18.6173 9.146C18.8973 9.146 19.182 9.146 19.4713 9.146C19.9846 9.146 20.386 9.12267 20.6753 9.076C20.9646 9.02933 21.17 8.94067 21.2913 8.81C21.4126 8.67 21.4733 8.46467 21.4733 8.194C21.4733 7.858 21.3753 7.634 21.1793 7.522C20.9833 7.41 20.722 7.31667 20.3953 7.242L18.4353 6.794C18.062 6.70067 17.7633 6.57933 17.5393 6.43C17.3153 6.27133 17.152 6.07067 17.0493 5.828C16.9466 5.576 16.8953 5.26333 16.8953 4.89C16.8953 4.358 16.9886 3.95667 17.1753 3.686C17.362 3.41533 17.6513 3.23333 18.0433 3.14C18.4353 3.04667 18.9393 3.00467 19.5553 3.014ZM27.1967 3.014C28.2234 3.014 28.9654 3.20067 29.4227 3.574C29.8894 3.94733 30.1227 4.50267 30.1227 5.24C30.132 5.84667 30.006 6.32267 29.7447 6.668C29.4834 7.004 29.068 7.172 28.4987 7.172H24.5227V6.248H28.1907C28.4987 6.248 28.6994 6.14533 28.7927 5.94C28.886 5.72533 28.9327 5.492 28.9327 5.24C28.9234 4.80133 28.7927 4.48867 28.5407 4.302C28.2887 4.11533 27.8594 4.022 27.2527 4.022C26.758 4.022 26.366 4.09667 26.0767 4.246C25.7967 4.386 25.596 4.638 25.4747 5.002C25.3627 5.35667 25.3067 5.856 25.3067 6.5C25.3067 7.228 25.3767 7.78333 25.5167 8.166C25.666 8.54867 25.8994 8.81 26.2167 8.95C26.534 9.09 26.954 9.16 27.4767 9.16C27.8407 9.16 28.2374 9.146 28.6667 9.118C29.1054 9.08067 29.4974 9.03867 29.8427 8.992L29.9687 9.79C29.754 9.874 29.488 9.944 29.1707 10C28.8627 10.056 28.5407 10.098 28.2047 10.126C27.878 10.154 27.584 10.168 27.3227 10.168C26.5387 10.168 25.9087 10.0513 25.4327 9.818C24.9567 9.57533 24.6067 9.19267 24.3827 8.67C24.168 8.138 24.0607 7.438 24.0607 6.57C24.0607 5.674 24.168 4.96933 24.3827 4.456C24.6067 3.93333 24.9474 3.56467 25.4047 3.35C25.8714 3.126 26.4687 3.014 27.1967 3.014ZM33.6242 1.166V8.124C33.6242 8.45067 33.6942 8.684 33.8342 8.824C33.9742 8.964 34.2122 9.034 34.5482 9.034H35.5842L35.7242 9.944C35.5749 9.98133 35.4022 10.014 35.2062 10.042C35.0102 10.07 34.8189 10.0887 34.6322 10.098C34.4456 10.1167 34.2962 10.126 34.1842 10.126C33.6149 10.126 33.1809 9.96733 32.8822 9.65C32.5836 9.33267 32.4342 8.87533 32.4342 8.278V1.166H33.6242ZM35.7942 3.182V4.12H31.2022V3.252L32.5462 3.182H35.7942ZM43.9634 0.158C44.6634 0.158 45.2561 0.242 45.7414 0.409999C46.2361 0.577999 46.6281 0.857999 46.9174 1.25C47.2161 1.63267 47.4308 2.146 47.5614 2.79C47.7014 3.434 47.7714 4.22733 47.7714 5.17C47.7714 6.11267 47.7014 6.906 47.5614 7.55C47.4308 8.194 47.2161 8.712 46.9174 9.104C46.6281 9.48667 46.2361 9.762 45.7414 9.93C45.2561 10.098 44.6634 10.182 43.9634 10.182C43.2541 10.182 42.6568 10.098 42.1714 9.93C41.6861 9.762 41.2941 9.48667 40.9954 9.104C40.6968 8.712 40.4774 8.194 40.3374 7.55C40.2068 6.906 40.1414 6.11267 40.1414 5.17C40.1414 4.22733 40.2068 3.434 40.3374 2.79C40.4774 2.146 40.6968 1.63267 40.9954 1.25C41.2941 0.857999 41.6861 0.577999 42.1714 0.409999C42.6568 0.242 43.2541 0.158 43.9634 0.158ZM43.3894 10.602C43.9401 10.8353 44.5234 11.0313 45.1394 11.19C45.7554 11.3487 46.4088 11.4793 47.0994 11.582L46.7074 12.814C45.9794 12.6647 45.3121 12.4547 44.7054 12.184C44.0988 11.9227 43.5434 11.6427 43.0394 11.344L43.3894 10.602ZM43.9634 1.264C43.3288 1.264 42.8248 1.38533 42.4514 1.628C42.0874 1.87067 41.8261 2.27667 41.6674 2.846C41.5181 3.406 41.4434 4.18067 41.4434 5.17C41.4434 6.15 41.5181 6.92467 41.6674 7.494C41.8261 8.06333 42.0874 8.46933 42.4514 8.712C42.8248 8.95467 43.3288 9.076 43.9634 9.076C44.5981 9.076 45.0974 8.95467 45.4614 8.712C45.8254 8.46933 46.0868 8.06333 46.2454 7.494C46.4041 6.92467 46.4834 6.15 46.4834 5.17C46.4834 4.18067 46.4041 3.406 46.2454 2.846C46.0868 2.27667 45.8254 1.87067 45.4614 1.628C45.0974 1.38533 44.5981 1.264 43.9634 1.264ZM53.2867 0.172C53.6973 0.172 54.0473 0.181333 54.3367 0.199999C54.6353 0.218666 54.906 0.251333 55.1487 0.298C55.4007 0.335333 55.6573 0.386666 55.9187 0.451999L55.7927 1.39C55.5127 1.362 55.2513 1.33867 55.0087 1.32C54.7753 1.30133 54.5233 1.28733 54.2527 1.278C53.982 1.26867 53.66 1.264 53.2867 1.264C52.6613 1.264 52.1667 1.38533 51.8027 1.628C51.4387 1.87067 51.1773 2.27667 51.0187 2.846C50.8693 3.41533 50.7947 4.19 50.7947 5.17C50.7947 6.15 50.8693 6.92467 51.0187 7.494C51.1773 8.06333 51.4387 8.46933 51.8027 8.712C52.1667 8.95467 52.6613 9.076 53.2867 9.076C53.884 9.076 54.3833 9.06667 54.7847 9.048C55.1953 9.02 55.5967 8.978 55.9887 8.922L56.1147 9.846C55.7133 9.958 55.298 10.0373 54.8687 10.084C54.4487 10.14 53.9213 10.168 53.2867 10.168C52.3627 10.168 51.6207 10.0093 51.0607 9.692C50.51 9.36533 50.1087 8.838 49.8567 8.11C49.614 7.382 49.4927 6.402 49.4927 5.17C49.4927 3.938 49.614 2.958 49.8567 2.23C50.1087 1.502 50.51 0.979333 51.0607 0.661999C51.6207 0.335333 52.3627 0.172 53.2867 0.172Z" fill="black"/>
</svg>
